<svg width="32" height="21" viewBox="0 0 32 21" fill="none" xmlns="http://www.w3.org/2000/svg">
<g clip-path="url(#clip0_246_1320)">
<path d="M29.3699 4.62397C30.727 4.62397 31.8305 3.58676 31.8305 2.31178C31.8305 1.03679 30.727 0 29.3699 0C28.0127 0 26.9092 1.03679 26.9092 2.31178C26.9092 3.58676 28.0127 4.62397 29.3699 4.62397ZM29.3699 2.98897C28.9728 2.98897 28.6499 2.68524 28.6499 2.3122C28.6499 1.93915 28.9732 1.63585 29.3699 1.63585C29.7665 1.63585 30.0898 1.93957 30.0898 2.3122C30.0898 2.68482 29.7665 2.98897 29.3699 2.98897Z" fill="#0D0D0D"/>
<path d="M30.6796 10.8384L28.2953 9.96672L23.2439 5.29696C22.5933 4.69581 21.7325 4.36478 20.8203 4.36478H2.09088C0.938125 4.36478 0 5.24613 0 6.32913V17.186C0 18.269 0.938125 19.1504 2.09088 19.1504H4.26896C4.81672 19.949 5.7696 20.4804 6.85395 20.4804C7.93829 20.4804 8.89117 19.949 9.43894 19.1504H21.271C21.8188 19.949 22.7717 20.4804 23.856 20.4804C24.9404 20.4804 25.8932 19.949 26.4406 19.1504H30.1694C31.1786 19.1504 32 18.3787 32 17.4305V12.6528C32 11.8441 31.4817 11.1321 30.6796 10.8388V10.8384ZM7.92756 17.591C7.92756 18.1472 7.44553 18.6001 6.8535 18.6001C6.26147 18.6001 5.77944 18.1472 5.77944 17.591C5.77944 17.2705 5.93952 16.9852 6.18859 16.8004C6.37192 16.6643 6.60265 16.5819 6.85395 16.5819C7.10525 16.5819 7.33598 16.6638 7.51931 16.8004C7.76793 16.9852 7.92846 17.2709 7.92846 17.591H7.92756ZM24.9301 17.591C24.9301 18.1472 24.4485 18.6001 23.856 18.6001C23.2635 18.6001 22.782 18.1472 22.782 17.591C22.782 17.2705 22.942 16.9852 23.1911 16.8004C23.3744 16.6643 23.6052 16.5819 23.8565 16.5819C24.1078 16.5819 24.3385 16.6638 24.5214 16.8004C24.77 16.9852 24.9301 17.2709 24.9301 17.591ZM29.4991 16.8004H26.8112C26.4441 15.5909 25.2596 14.702 23.8565 14.702C22.4533 14.702 21.2688 15.5909 20.9017 16.8004H9.80873C9.44162 15.5909 8.25711 14.702 6.85395 14.702C5.45079 14.702 4.26628 15.5909 3.89917 16.8004H2.50182V6.71478H20.8203C21.0725 6.71478 21.3104 6.80636 21.4897 6.9723L26.9083 11.9815L29.4991 12.9284V16.8004Z" fill="#0D0D0D"/>
</g>
<defs>
<clipPath id="clip0_246_1320">
<rect width="32" height="20.48" fill="white"/>
</clipPath>
</defs>
</svg>
