<svg width="17" height="16" viewBox="0 0 17 16" fill="none" xmlns="http://www.w3.org/2000/svg">
<path d="M8.9595 -0.00332624C7.36742 -0.0036555 5.81101 0.459499 4.48711 1.32756C3.16321 2.19562 2.13128 3.4296 1.52186 4.87341C0.912443 6.31722 0.752908 7.90602 1.06342 9.43885C1.37394 10.9717 2.14056 12.3797 3.26633 13.4848C4.3921 14.5899 5.82646 15.3424 7.38796 15.6472C8.94946 15.952 10.568 15.7954 12.0388 15.1972C13.5096 14.599 14.7667 13.586 15.651 12.2864C16.5353 10.9868 17.0071 9.45899 17.0067 7.89615C17.0045 5.80176 16.156 3.79377 14.6473 2.31281C13.1386 0.831848 11.0931 -0.00112277 8.9595 -0.00332624ZM8.9595 11.627C8.20774 11.6273 7.47277 11.4088 6.84754 10.999C6.22231 10.5893 5.7349 10.0067 5.44698 9.32503C5.15906 8.64334 5.08356 7.89314 5.23002 7.16933C5.37647 6.44551 5.73832 5.78058 6.26978 5.25865C6.80123 4.73672 7.47843 4.38123 8.21572 4.23714C8.95302 4.09305 9.71727 4.16684 10.4118 4.44917C11.1064 4.73149 11.7001 5.20968 12.1178 5.82325C12.5355 6.43681 12.7584 7.15819 12.7584 7.89615C12.7584 8.88564 12.3583 9.83468 11.6461 10.5348C10.9338 11.235 9.9675 11.629 8.9595 11.6303V11.627Z" fill="#0D0D0D"/>
</svg>
