<?xml version="1.0" encoding="UTF-8"?><svg id="a" xmlns="http://www.w3.org/2000/svg" viewBox="0 0 342.68 486.52"><defs><style>.b{fill:#f7f5f5;}</style></defs><g><path class="b" d="M287.66,9.88c-24.94,0-45.15,20.21-45.15,45.15s20.21,45.15,45.15,45.15,45.15-20.21,45.15-45.15-20.21-45.15-45.15-45.15Zm0,71.13c-14.33,0-25.99-11.66-25.99-25.99s11.66-25.99,25.99-25.99,25.99,11.66,25.99,25.99-11.66,25.99-25.99,25.99Z"/><path class="b" d="M287.66,110.06c-30.35,0-55.03-24.69-55.03-55.04S257.31,0,287.66,0s55.03,24.68,55.03,55.03-24.68,55.04-55.03,55.04Zm0-71.14c-8.88,0-16.1,7.23-16.1,16.1s7.23,16.11,16.1,16.11,16.1-7.23,16.1-16.11-7.23-16.1-16.1-16.1Z"/></g><path class="b" d="M334.63,236.56h-16.19c-63.85,0-119.92-34.76-151.12-86.78-31.2,52.02-87.27,86.78-151.12,86.78H0v-52.21H16.19c68.94,0,125.02-58.02,125.02-129.32h52.21c0,71.31,56.08,129.32,125.02,129.32h16.19v52.21Z"/><path class="b" d="M334.63,331.29h-16.19c-63.85,0-119.92-34.77-151.12-86.79-31.2,52.02-87.27,86.79-151.12,86.79H0v-52.21H16.19c68.94,0,125.02-58.02,125.02-129.33h52.21c0,71.31,56.08,129.33,125.02,129.33h16.19v52.21Z"/><path class="b" d="M334.63,426.02h-16.19c-63.85,0-119.92-34.77-151.12-86.79-31.2,52.02-87.27,86.79-151.12,86.79H0v-52.21H16.19c68.94,0,125.02-58.02,125.02-129.33h52.21c0,71.31,56.08,129.33,125.02,129.33h16.19v52.21Z"/><rect class="b" x="141.67" y="55.94" width="52.21" height="430.59"/></svg>